<?xml version="1.0" standalone="no"?>
<!DOCTYPE svg PUBLIC "-//W3C//DTD SVG 1.1//EN" "http://www.w3.org/Graphics/SVG/1.1/DTD/svg11.dtd" >
<svg xmlns="http://www.w3.org/2000/svg">
<metadata>Generated by IcoMoon</metadata>
<defs>
<font id="icomoon" horiz-adv-x="1024">
<font-face units-per-em="1024" ascent="960" descent="-64" />
<missing-glyph horiz-adv-x="1024" />
<glyph unicode="&#x20;" d="" horiz-adv-x="512" />
<glyph unicode="&#xe600;" d="M356.388 857.682l-39.434-39.414 381.143-381.138-381.143-381.128 39.434-39.434 420.557 420.562z" />
<glyph unicode="&#xe601;" d="M705.505 16.563l39.434 39.419-381.138 381.133 381.138 381.123-39.434 39.439-420.557-420.562z" />
<glyph unicode="&#xe602;" d="M432.927 466.289c0 0 77.44 5.77 77.44 96.614 0 90.86-63.375 135.224-143.662 135.224h-264.223v-507.771h264.233c0 0 161.28-5.094 161.28 149.893-0.031 0 7.014 126.039-95.068 126.039zM218.895 607.887h147.794c0 0 35.912 0 35.912-52.813 0-52.849-21.125-60.524-45.076-60.524h-138.644v113.336h0.015zM359.214 280.612c-3.881-0.102-7.209 0-9.436 0h-130.883v135.67h147.814c0 0 53.54 0.727 53.54-69.699-0.015-59.423-39.992-65.521-61.036-65.971zM743.122 568.94c-195.267 0-195.098-195.098-195.098-195.098s-13.363-194.089 195.098-194.089c0 0 173.768-9.928 173.768 135.040h-89.385c0 0 2.975-54.615-81.388-54.615 0 0-89.354-5.96-89.354 88.366h263.091c-0.020-0.005 28.78 220.396-176.732 220.396zM655.739 416.282c0 0 10.921 78.269 89.349 78.269 78.464 0 77.43-78.269 77.43-78.269h-166.779zM633.882 668.216h209.464v-62.541h-209.464v62.541z" />
<glyph unicode="&#xe603;" d="M129.848 324.014l13.425 57.344-13.425 59.264c-0.364 1.756-3.748 3.113-7.854 3.113-4.163 0-7.542-1.362-7.854-3.128l-11.817-59.249 11.817-57.344c0.317-1.792 3.697-3.128 7.854-3.128 4.106 0 7.491 1.341 7.854 3.128zM213.791 292.163l11.372 88.632-11.372 137.093c-0.333 3.482-4.588 6.211-9.743 6.211-5.207 0-9.482-2.734-9.728-6.211l-10.107-137.093 10.107-88.632c0.251-3.451 4.526-6.18 9.728-6.18 5.151 0 9.411 2.703 9.743 6.18zM297.569 293.622l9.498 87.112-9.498 182.538c-0.266 4.275-5.32 7.66-11.505 7.66-6.246 0-11.305-3.364-11.515-7.66l-8.438-182.538 8.438-87.148c0.215-4.255 5.268-7.598 11.515-7.598 6.185 0.010 11.238 3.364 11.505 7.634zM381.164 294.917l7.803 85.816-7.803 183.864c-0.184 5.074-5.934 9.047-13.092 9.047-7.194 0-12.959-3.973-13.123-9.047l-6.927-183.864 6.943-85.78c0.164-5.038 5.914-9.032 13.123-9.032 7.142 0 12.892 3.922 13.076 8.996zM464.707 296.008l6.149 84.685-6.149 210.816c-0.128 5.78-6.712 10.486-14.633 10.486-7.956 0-14.515-4.721-14.648-10.486l-5.504-210.749c0-0.143 5.504-84.767 5.504-84.767 0.133-5.724 6.697-10.429 14.648-10.429 7.921 0 14.505 4.659 14.633 10.445zM523.197 285.537c0.282-0.036 290.678-0.164 292.572-0.164 58.301 0 105.533 45.691 105.533 102.057 0 56.381-47.237 102.093-105.533 102.093-14.469 0-28.247-2.852-40.827-7.941-8.407 91.965-88.172 164.127-185.457 164.127-23.793 0-47.037-4.526-67.517-12.165-7.977-3.016-10.097-6.067-10.158-12.032v-323.927c0.082-6.252 5.084-11.453 11.387-12.047z" />
<glyph unicode="&#xe604;" d="M399.176 539.709c185.37 53.289 340.152-55.644 340.152-55.644l-127.565-34.447-36.751 68.275c-34.58 6.339-73.989 8.335-115.866 1.29l86.886-176.507 375.296 108.093c0 0-136.095 213.765-542.106 144.732-2.36-0.425-4.465-1.014-6.83-1.388l-39.409 80.046-116.838-13.286 47.642-97.413c-246.374-101.74-137.19-341.617-137.19-341.617l375.864 108.196-103.286 209.669zM228.28 346.102c0 0-36.214 79.949 69.176 148.5l56.074-114.719-125.251-33.782z" />
<glyph unicode="&#xe605;" d="M225.684 669.317v-108.508h-123.238v-248.412h203.295v356.92h-80.056zM225.684 379.146h-41.754v112.922h41.733v-112.927h0.020zM472.648 559.785v-248.361h123.295v-38.871h-124.682v-69.719h204.708v356.951h-203.32zM595.942 380.114h-41.795v112.932h41.795v-112.932zM718.223 559.785v-248.361h123.197v-38.871h-124.662v-69.719h204.759v356.951h-203.295zM841.421 380.114h-41.661v112.932h41.672v-112.932h-0.010zM347.034 561.29h82.908v-249.866h-82.908v249.866zM347.034 664.909h82.908v-67.773h-82.908v67.773z" />
<glyph unicode="&#xe606;" d="M510.776 847.442c-225.408 0-408.3-182.886-408.3-408.31 0-225.618 182.886-408.294 408.3-408.294 225.428 0 408.315 182.676 408.315 408.294 0 225.418-182.886 408.31-408.315 408.31zM770.028 659.236c45.937-54.016 75.054-122.491 80.164-197.56-73.58 3.83-161.618 3.83-232.212-2.765-8.94 22.543-18.094 44.657-28.073 65.92 81.439 35.302 144.169 81.664 180.122 134.405zM510.776 779.387c82.519 0 158.223-29.343 217.144-78.254-37.012-46.797-95.063-87.409-167.363-118.241-39.557 73.155-85.074 136.1-133.555 185.651 27.008 6.81 54.866 10.844 83.773 10.844zM356.818 742.175c49.126-48.916 95.278-111.222 135.685-184.161-76.774-23.388-164.813-36.787-258.811-36.787-17.859 0-35.302 0.635-52.526 1.695 24.453 95.913 89.324 175.442 175.652 219.254zM171.167 455.291c19.354-0.85 38.927-1.275 58.701-1.065 107.182 1.28 206.92 18.079 292.613 45.507 8.084-16.788 15.739-34.017 22.963-51.676-11.684-2.765-22.118-5.745-30.403-9.144-117.181-49.126-209.469-128.451-259.446-224.348-52.741 59.95-85.064 138.435-85.064 224.558 0 5.54 0.215 10.854 0.635 16.169zM510.776 98.872c-78.669 0-150.984 26.793-208.62 71.665 45.302 89.769 126.121 163.973 227.973 210.12 9.569 4.46 22.333 8.074 37.012 11.269 12.114-33.603 22.963-68.475 32.532-104.643 14.664-56.356 25.078-112.056 31.468-166.083-37.417-14.239-77.829-22.328-120.366-22.328zM694.733 153.108c-6.374 54.641-16.794 110.797-31.693 167.788-7.219 27.643-15.503 54.436-24.443 80.594 66.77 5.535 146.739 4.68 210.314 0-11.484-104.402-70.164-194.161-154.179-248.381z" />
<glyph unicode="&#xe607;" d="M918.006 464.072c-0.246 1.070-0.097 2.227-0.492 3.272-0.143 0.43-0.548 0.655-0.696 1.065-0.246 0.614-0.195 1.295-0.553 1.889-73.815 141.348-234.598 242.627-404.209 242.627-169.59 0-330.337-101.125-404.255-242.458-0.297-0.579-0.246-1.28-0.527-1.889-0.169-0.399-0.512-0.635-0.66-1.065-0.425-1.050-0.282-2.186-0.527-3.261-0.461-1.92-0.891-3.743-0.891-5.709 0-1.951 0.461-3.763 0.891-5.693 0.246-1.065 0.102-2.232 0.527-3.261 0.148-0.425 0.527-0.666 0.66-1.070 0.282-0.62 0.23-1.285 0.527-1.874 73.902-141.353 234.665-242.637 404.255-242.637 169.61 0 330.394 101.12 404.209 242.442 0.374 0.604 0.323 1.285 0.553 1.889 0.143 0.41 0.548 0.635 0.696 1.070 0.394 1.050 0.246 2.181 0.492 3.261 0.456 1.93 0.896 3.758 0.896 5.709 0 1.92-0.44 3.794-0.896 5.693zM512.056 254.945c-142.981 0-282.972 81.27-352.732 203.597 70.144 122.501 209.92 203.474 352.732 203.474 142.95 0 282.941-81.28 352.681-203.592-70.118-122.491-209.889-203.479-352.681-203.479zM511.462 636.621c-98.478 0-178.253-79.795-178.253-178.243 0-98.468 79.79-178.253 178.253-178.253 98.437 0 178.253 79.805 178.253 178.253 0 98.473-79.816 178.243-178.253 178.243zM511.462 305.597c-84.244 0-152.786 68.521-152.786 152.776 0 84.265 68.547 152.786 152.786 152.786 84.265 0 152.781-68.526 152.781-152.786 0-84.255-68.516-152.776-152.781-152.776z" />
<glyph unicode="&#xe608;" d="M703.212 585.349h-133.089v87.286c0 32.799 21.719 40.428 37.028 40.428 15.258 0 93.921 0 93.921 0v144.118l-129.372 0.497c-143.575 0-176.251-107.479-176.251-176.266v-96.061h-83.046v-148.506h83.046c0-190.577 0-420.209 0-420.209h174.674c0 0 0 231.905 0 420.209h117.868l15.222 148.506z" />
<glyph unicode="&#xe609;" d="M465.546 450.678c0-100.259-81.276-181.535-181.535-181.535s-181.535 81.276-181.535 181.535c0 100.259 81.276 181.535 181.535 181.535 100.259 0 181.535-81.276 181.535-181.535zM739.487 632.212c100.27 0 181.545-81.27 181.545-181.535 0-100.26-81.275-181.54-181.545-181.54-100.239 0-181.535 81.28-181.535 181.54 0 100.265 81.295 181.535 181.535 181.535z" />
<glyph unicode="&#xe60a;" d="M771.036 456.136h-519.163c-82.504 0-149.391-66.964-149.391-149.443v-120.1c0-82.493 66.888-149.437 149.391-149.437h519.163c82.488 0 149.396 66.939 149.396 149.437v120.095c-0.005 82.483-66.908 149.448-149.396 149.448zM360.945 362.65h-48.241v-239.811h-46.643v239.811h-48.225v40.791h143.114v-40.791zM497.285 122.839h-41.37v22.676c-7.66-8.387-15.601-14.812-23.875-19.113-8.274-4.5-16.266-6.589-24.023-6.589-9.62 0-16.748 3.046-21.642 9.247-4.808 6.185-7.24 15.36-7.24 27.745v173.056h41.349v-158.822c0-4.89 0.916-8.417 2.55-10.598 1.812-2.243 4.644-3.287 8.525-3.287 3.011 0 6.876 1.428 11.505 4.337 4.695 2.939 8.991 6.61 12.851 11.156v157.235h41.37v-207.043zM647.444 165.581c0-14.638-3.231-25.887-9.738-33.71-6.456-7.828-15.913-11.694-28.129-11.694-8.125 0-15.35 1.464-21.647 4.506-6.323 3.005-12.283 7.629-17.695 14.034v-15.862h-41.866v280.586h41.866v-90.368c5.596 6.262 11.535 11.11 17.715 14.341 6.308 3.328 12.667 4.946 19.108 4.946 13.087 0 23.055-4.378 29.952-13.199 6.938-8.827 10.404-21.76 10.404-38.692v-114.883h0.031zM790.932 221.363h-79.16v-39.009c0-10.88 1.336-18.452 4.045-22.666 2.765-4.239 7.409-6.303 14.019-6.303 6.876 0 11.633 1.792 14.403 5.345 2.662 3.615 4.096 11.443 4.096 23.624v9.416h42.598v-10.614c0-21.217-5.181-37.207-15.636-48.005-10.286-10.685-25.784-15.985-46.408-15.985-18.545 0-33.193 5.658-43.786 17.009-10.598 11.32-16.031 27.003-16.031 46.966v92.979c0 17.9 5.908 32.64 17.644 43.914 11.689 11.29 26.757 16.927 45.286 16.927 18.939 0 33.526-5.222 43.679-15.683 10.138-10.501 15.252-25.513 15.252-45.138v-52.777zM730.25 298.772c-6.61 0-11.32-1.843-14.188-5.724-2.929-3.63-4.296-9.846-4.296-18.545v-20.925h36.562v20.925c0 8.699-1.464 14.925-4.378 18.545-2.765 3.86-7.439 5.724-13.701 5.724zM587.551 299.464c-2.949 0-5.908-0.645-8.776-2.007-2.893-1.316-5.724-3.497-8.525-6.323v-128.963c3.313-3.328 6.61-5.893 9.825-7.368 3.159-1.413 6.477-2.222 9.989-2.222 5.074 0 8.791 1.475 11.172 4.434 2.345 2.939 3.543 7.624 3.543 14.249v106.911c0 7.040-1.398 12.303-4.316 15.913-3.057 3.594-7.352 5.376-12.913 5.376zM319.862 528.041h52.439v128.256l61.046 180.905h-53.289l-32.461-123.576h-3.297l-34.079 123.576h-52.823l62.464-186.691zM504.361 522.291c21.207 0 37.821 5.55 49.925 16.66 12.037 11.162 18.043 26.378 18.043 45.885v117.801c0 17.372-6.159 31.662-18.417 42.691-12.349 10.993-28.15 16.532-47.442 16.532-21.161 0-38.021-5.243-50.56-15.708-12.503-10.455-18.811-24.479-18.811-42.199v-118.211c0-19.405 6.108-34.734 18.345-46.239 12.242-11.464 28.575-17.213 48.916-17.213zM485.084 705.69c0 4.951 1.766 8.96 5.258 12.083 3.63 3.082 8.207 4.562 13.916 4.562 6.144 0 11.121-1.48 14.945-4.562 3.763-3.123 5.658-7.132 5.658-12.083v-124.268c0-6.083-1.864-10.931-5.591-14.408-3.732-3.497-8.755-5.212-15.017-5.212-6.159 0-10.906 1.664-14.249 5.166-3.297 3.42-4.946 8.212-4.946 14.469v124.252h0.026zM642.652 524.698c8.76 0 17.766 2.514 27.003 7.327 9.37 4.859 18.324 11.986 26.849 21.289v-25.283h46.566v228.055h-46.566v-173.107c-4.347-4.951-9.17-9.032-14.351-12.252-5.258-3.205-9.59-4.797-13.020-4.797-4.372 0-7.588 1.183-9.472 3.671-1.915 2.381-2.995 6.287-2.995 11.653v174.833h-46.495v-190.597c0-13.599 2.729-23.757 8.105-30.5 5.514-6.83 13.568-10.291 24.376-10.291z" />
<glyph unicode="&#xe60b;" d="M510.93 847.442c-224.978 0-408.448-183.465-408.448-408.888 0-225.172 183.465-408.438 408.448-408.438 18.109 0 35.763 1.050 53.007 3.835 182.41 23.404 327.363 167.501 351.841 349.266 2.76 18.104 4.035 36.618 4.035 55.342 0 225.413-183.475 408.883-408.883 408.883zM143.77 438.548c0 53.217 11.494 103.875 31.939 149.422l175.155-479.959c-122.593 59.592-207.094 185.4-207.094 330.537zM558.618 74.168c-15.544-1.925-31.498-2.985-47.693-2.985-35.963 0-70.656 5.309-103.439 15.124l40.028 117.053h0.21l69.591 203.274 113.019-309.489c0.86-1.7 1.905-3.395 2.77-4.9-23.844-8.515-48.732-14.469-74.486-18.079zM561.807 610.97c22.139 1.065 41.923 3.4 41.923 3.4 20.009 2.13 17.464 31.498-2.33 30.223 0 0-59.602-4.664-97.925-4.664-35.963 0-96.84 4.664-96.84 4.664-19.579 1.275-22.129-29.158-2.135-30.223 0 0 18.524-2.34 38.523-3.4l57.267-156.872-80.461-241.157-133.883 398.029c22.359 1.065 42.158 3.4 42.158 3.4 19.564 2.13 17.444 31.498-2.35 30.223 0 0-59.377-4.664-97.905-4.664-7.035 0-15.119 0.2-23.629 0.415 65.546 99.61 178.575 165.376 306.703 165.376 95.785 0 182.84-36.603 248.182-96.215-1.705 0-3.19 0.215-4.89 0.215-36.183 0-61.732-31.498-61.732-65.347 0-30.218 17.459-55.752 35.978-85.985 14.049-24.474 30.433-55.982 30.433-101.309 0-31.508-9.375-71.096-27.889-118.554l-36.818-122.604-132.383 395.049zM695.685 120.996l29.158 84.495 83.016 240.092c21.064 52.367 27.884 94.295 27.884 131.543 0 13.404-0.855 26.173-2.355 37.883 28.744-52.357 45.128-112.379 45.128-176.456 0-17.024-1.055-33.613-3.195-50.012-15.744-114.299-84.065-212.009-179.635-267.546z" />
<glyph unicode="&#xe60c;" d="M133.202 723.338c0 0 81.352-547.405 316.928-691.466 32.184-18.642 68.69-17.761 93.184 3.374 98.319 84.746 200.079 227.487 228.895 293.586 54.139-5.161 91.428 8.084 91.428 8.084l-0.343 104.484c0 0-79.386-1.5-94.51-1.725-115.164-1.71-194.642 138.015-147.82 256.072 32.466 81.772 89.513 22.84 99.697-2.575 10.158-25.416 7.921-93.537-6.892-143.498 18.048-42.117 116.004-64.445 138.348-29.225 27.525 77.338 39.552 216.53-31.78 288.717-47.043 47.611-165.13 71.782-251.561 17.541-86.461-54.226-84.762-169.477-77.988-227.092 6.784-57.626 25.431-179.645 140.667-247.429 10.179-11.868-126.316-189.148-133.878-181.35-169.472 174.566-215.24 550.81-215.24 550.81l-149.135 1.695z" />
<glyph unicode="&#xe60d;" d="M921.405 702.111c-30.193-13.404-62.582-22.395-96.573-26.491 34.79 20.787 61.379 53.683 73.969 92.964-32.492-19.297-68.47-33.285-106.772-40.786-30.582 32.691-74.266 53.084-122.542 53.084-92.774 0-168.038-75.279-168.038-168.044 0-13.194 1.5-25.989 4.342-38.287-139.653 7.009-263.46 73.882-346.276 175.539-14.5-24.796-22.794-53.683-22.794-84.475 0-58.276 29.691-109.655 74.772-139.853-27.54 0.901-53.478 8.494-76.124 20.992 0-0.701 0-1.398 0-2.099 0-81.372 57.928-149.248 134.753-164.741-14.095-3.809-28.943-5.898-44.237-5.898-10.839 0-21.335 1.116-31.631 3.092 21.391-66.765 83.476-115.354 156.943-116.756-57.482-44.989-129.91-71.875-208.635-71.875-13.588 0-26.936 0.809-40.084 2.304 74.327-47.585 162.647-75.474 257.562-75.474 309.038 0 477.988 256.020 477.988 478.034 0 7.296-0.195 14.602-0.404 21.796 32.794 23.69 61.179 53.279 83.784 86.973z" />
<glyph unicode="&#xe60e;" d="M557.44 857.682v-193.823h193.812v-149.668h-193.812v-214.912c0-48.62-0.584-76.682 4.541-90.45 5.12-13.701 17.961-27.95 31.933-36.163 18.586-11.141 39.716-16.691 63.58-16.691 42.445 0 84.675 13.778 126.643 41.364v-132.173c-35.768-16.85-68.219-28.744-97.26-35.497-29.071-6.728-60.436-10.204-94.198-10.204-38.313 0-60.938 4.854-90.348 14.464-29.471 9.743-54.579 23.593-75.336 41.4-20.869 17.925-35.22 36.982-43.264 57.124-8.064 20.209-12.068 49.464-12.068 87.788v293.949h-113.879v118.717c32.932 10.691 71.086 26.010 94.52 45.967 23.547 20.029 42.378 43.971 56.54 71.997 14.269 27.94 24.054 63.58 29.404 106.788l119.183 0.020z" />
<glyph unicode="&#xe60f;" d="M545.065 207.805c2.396 71.66-58.092 133.233-134.81 137.221l-28.877 1.51c-27.873 1.418-51.441 24.556-51.441 50.483 0 25.027 23.235 46.648 50.371 46.648h189.701c27.121 0 48.061-23.265 48.061-50.371v-174.612c0-77.317 62.909-140.15 140.186-140.15h22.932c77.332 0 140.186 62.833 140.186 140.15v586.808c-3.4 0.169-6.636 0.988-10.102 0.988h-80.87v-587.791c0-27.136-22.062-49.132-49.213-49.132h-22.932c-27.085 0-49.193 21.996-49.193 49.132v174.612c0 77.322-62.868 140.221-140.206 140.221h-189.691c-77.322 0-140.237-61.261-140.237-136.504 0-73.953 61.793-137.421 137.656-141.343l28.897-1.541c27.085-1.398 49.362-21.207 48.625-43.315-0.722-22.415-24.607-41.242-52.076-41.242h-299.551v-91.023h299.587c76.447-0.015 140.621 57.994 142.996 129.249z" />
<glyph unicode="&#xe610;" d="M181.064 857.682v-840.95l330.716 223.063 331.162-223.063v840.95z" />
<glyph unicode="&#xe611;" d="M910.592 102.349l-209.894 209.905c45.911 57.457 73.426 130.319 73.426 209.608 0 185.431-150.374 335.816-335.826 335.816-185.441 0-335.816-150.385-335.816-335.816 0-185.452 150.374-335.826 335.816-335.826 79.288 0 152.156 27.515 209.608 73.426l209.905-209.905c7.25-7.286 16.896-10.906 26.378-10.906 9.523 0 19.128 3.62 26.399 10.906 14.541 14.556 14.541 38.252 0.005 52.792zM438.292 260.654c-144.241 0-261.192 116.956-261.192 261.212 0 144.241 116.951 261.192 261.192 261.192 144.256 0 261.212-116.951 261.212-261.192 0-144.256-116.956-261.212-261.212-261.212z" />
<glyph unicode="&#xe612;" d="M102.63 410.685c102.2 0 198.292-39.931 270.505-112.553 72.346-72.622 112.174-169.354 112.174-272.338h157.537c0 299.1-242.371 542.428-540.216 542.428v-157.537zM102.871 689.94c364.283 0 660.669-298.025 660.669-664.34h157.527c0 453.202-367.053 821.842-818.196 821.842v-157.501zM320.676 135.644c0-60.252-48.86-109.117-109.087-109.117-60.252 0-109.112 48.85-109.112 109.117 0 60.273 48.845 109.087 109.097 109.087 60.227 0 109.102-48.809 109.102-109.087z" />
<glyph unicode="&#xe613;" d="M324.388 857.682l-39.434-39.414 381.143-381.138-381.143-381.128 39.434-39.434 420.557 420.562z" />
<glyph unicode="&#xe614;" d="M323.948 797.138c-136.622-70.308-221.466-208.855-221.466-362.598 0-28.058 3.528-56.479 9.743-84.833l351.636 320.133c-37.535 34.13-136.054 123.781-139.914 127.299zM677.197 805.77c-53.115 24.161-109.532 36.552-167.808 36.552-41.329 0-82.099-6.861-121.62-19.528l289.428-263.229v246.205zM739.103 769.9v-469.622h154.132c15.181 43.443 23.117 88.602 23.117 134.262 0.005 134.103-67.389 259.712-177.249 335.36zM131.779 283.761c29.829-74.926 82.181-139.377 148.982-185.062v320.707l-90.435-82.345c-30.889-28.124-56.643-51.569-58.547-53.299zM342.692 62.776c41.344-18.652 84.598-30.188 129.142-34.324h74.737c133.524 12.462 253.286 91.53 318.433 209.9h-522.312v-175.575z" />
<glyph unicode="&#xe615;" d="M102.482 755.139v-614.277h819.041v614.277h-819.041zM822.938 703.944l-310.984-248.76-310.902 248.76h621.885zM153.672 192.082v484.198l358.282-286.566 358.349 286.566v-484.198h-716.631z" />
<glyph unicode="&#xe616;" d="M917.181 489.032c0.835 2.048 1.3 4.224 1.3 6.477 0 2.278-0.451 4.465-1.3 6.502-0.865 2.048-2.089 3.886-3.645 5.432l-116.306 116.321c-6.605 6.584-17.249 6.584-23.828 0-6.579-6.569-6.579-17.224 0-23.808l87.567-87.578h-375.137c-9.313 0-16.84-7.537-16.84-16.85 0-9.283 7.526-16.829 16.84-16.829h375.137l-87.567-87.567c-6.579-6.605-6.579-17.234 0-23.808 3.282-3.292 7.593-4.941 11.919-4.941 4.306 0 8.617 1.649 11.909 4.941l116.306 116.291c1.556 1.541 2.78 3.369 3.645 5.417zM652.918 417.802c-9.313 0-16.84-7.542-16.84-16.829v-185.544h-242.765v480.568c0 6.067-3.261 11.663-8.535 14.653l-199.905 113.347h451.205v-233.917c0-9.288 7.526-16.845 16.84-16.845 9.303 0 16.845 7.557 16.845 16.845v250.762c0 9.313-7.542 16.84-16.845 16.84h-533.596c-9.329 0-16.84-7.526-16.84-16.84v-642.253c0-7.803 5.407-14.065 12.626-15.995l253.046-143.503c2.586-1.464 5.443-2.186 8.305-2.186 2.929 0 5.857 0.748 8.479 2.278 5.171 3.016 8.366 8.556 8.366 14.561v128.026h259.62c9.303 0 16.845 7.537 16.845 16.819v202.383c-0.005 9.288-7.542 16.829-16.85 16.829zM359.629 82.652l-221.747 125.763v603.505l221.747-125.737v-603.53z" />
<glyph unicode="&#xe617;" d="M757.806 54.999v310.113c0 0-9.18 82.975-89.446 82.975-80.215 0-94.889-78.879-94.889-78.879v-314.209h-165.325l2.703 512.282h159.933l-1.306-64.394c0 0 33.352 84.163 158.981 84.163 125.588 0 182.487-72.177 193.060-207.15 0-135.009 0-324.895 0-324.895h-163.712zM205.399 640.046c-56.796 0-102.922 40.632-102.922 90.854 0 50.212 46.121 90.941 102.922 90.941 56.806 0 102.927-40.735 102.927-90.941 0-50.227-46.121-90.854-102.927-90.854zM307.425 54.405h-203.254v511.57l203.254 1.3v-512.87z" />
<glyph unicode="&#xe618;" d="M922.025 201.277c0.015-22.287-8.1-44.611-24.325-60.867l-88.177-88.105c-16.246-16.23-37.847-25.201-60.795-25.201-22.958 0-44.549 8.97-60.79 25.201l-173.245 173.24c-16.225 16.236-25.165 37.852-25.165 60.805 0 22.968 8.955 44.564 25.165 60.81l0.323 0.302 24.325-24.33-0.333-0.307c-19.507-19.476-19.507-53.509 0-72.945l173.292-173.302c9.723-9.728 22.646-15.068 36.434-15.068 13.773 0 26.711 5.376 36.454 15.119l88.177 88.166c9.759 9.733 15.114 22.682 15.114 36.48 0 13.788-5.356 26.742-15.114 36.475l-173.245 173.225c-9.738 9.743-22.697 15.109-36.465 15.109-13.793 0-26.747-5.361-36.47-15.109l-0.307-0.312-24.325 24.351 0.307 0.312c16.246 16.225 37.832 25.18 60.81 25.18 22.943 0 44.549-8.955 60.81-25.18l173.225-173.251c16.21-16.256 24.325-38.528 24.325-60.81v0.010zM680.31 321.628l-47.775-47.759-286.966 287.002 47.724 47.759 287.017-287.002zM534.968 593.27c0-22.282-8.095-44.564-24.34-60.81l-2.77-2.765-24.325 24.325 2.755 2.78c9.743 9.718 15.186 22.666 15.186 36.47 0 13.783-5.427 26.747-15.186 36.47l-173.24 173.317c-9.708 9.718-22.697 15.058-36.47 15.058-13.788 0-26.726-5.361-36.47-15.109l-88.105-88.166c-19.487-19.461-19.487-53.443 0-72.893l173.225-173.276c9.743-9.743 22.712-15.109 36.47-15.109 12.733 0 24.443 5.033 33.869 13.389l24.591-24.525c-15.974-14.848-36.485-23.224-58.46-23.224-22.943 0-44.564 8.955-60.795 25.18l-173.225 173.271c-16.276 16.236-25.196 37.847-25.196 60.8 0 22.973 8.919 44.57 25.149 60.81l88.156 88.105c16.246 16.236 37.811 25.19 60.795 25.19 22.963-0.015 44.6-8.955 60.81-25.19l173.24-173.23c16.246-16.236 24.34-38.528 24.34-60.8v-0.067z" />
<glyph unicode="&#xe619;" d="M794.235 517.637c-7.148 2.345-14.070 4.511-20.746 6.636-50.913 16.010-81.618 25.651-81.618 65.295 0 32.143 24.791 55.439 58.988 55.439 26.179 0 45.711-10.854 63.227-35.354 1.608-2.294 4.705-3.103 7.24-1.756l51.395 26.225c1.393 0.681 2.432 1.94 2.862 3.441 0.435 1.495 0.282 3.092-0.481 4.46-27.53 48.911-67.22 72.678-121.359 72.678-82.371 0-135.634-49.843-135.634-126.956 0-78.858 51.502-110.781 146.514-142.044 55.035-18.345 79.375-28.073 79.375-67.241 0-44.022-39.706-75.674-93.901-73.815-56.771 1.915-73.984 32.005-95.611 81.295-36.593 83.497-78.244 180.941-78.643 181.888-41.8 96.44-124.652 151.716-227.348 151.716-135.644 0-246.006-110.382-246.006-246.093 0-135.629 110.367-246.016 246.006-246.016 74.004 0 143.365 32.794 190.259 90.025 1.362 1.649 1.715 3.886 0.86 5.878l-31.032 71.572c-0.881 1.987-2.862 3.313-5.059 3.415-2.243 0.108-4.275-1.142-5.258-3.062-29.276-55.956-86.661-90.701-149.801-90.701-93.097 0-168.817 75.735-168.817 168.878 0 93.153 75.75 168.888 168.832 168.888 67.784 0 129.874-40.223 154.542-100.255l76.692-174.956 8.852-19.645c34.683-80.794 85.652-116.992 165.443-117.284 94.894 0 166.436 62.874 166.436 146.243-0.010 83.753-46.285 115.128-126.208 141.204z" />
<glyph unicode="&#xe61a;" d="M819.077 28.477h-614.221c-56.586 0-102.374 45.788-102.374 102.369v614.221c0 56.586 45.788 102.374 102.374 102.374h614.221c56.581 0 102.369-45.788 102.369-102.374v-614.221c0-56.581-45.793-102.369-102.369-102.369zM511.959 541.926c-57.385 0-103.956-46.577-103.956-103.967 0-57.39 46.572-103.967 103.956-103.967 57.39 0 103.967 46.577 103.967 103.967 0 57.39-46.577 103.967-103.967 103.967zM819.077 745.068h-102.364v-102.364h102.364v102.364zM819.077 437.96h-89.569c0-120.172-97.377-217.544-217.549-217.544-120.161 0-217.528 97.377-217.528 217.544h-89.574v-307.113h614.221v307.113z" />
<glyph unicode="&#xe61b;" d="M295.076 586.455c0 32.911-26.563 59.587-59.284 59.587-32.742 0-59.269-26.675-59.269-59.587 0-32.891 26.527-59.546 59.269-59.546 32.722 0 59.284 26.65 59.284 59.546zM159.35 214.866c0 0-0.573-0.778-1.393-2.063h708.076c-0.072 0.077-0.118 0.123-0.169 0.22l-241.659 328.98c0 0-28.662 39.004-57.288 0l-149.545-203.597-55.020 74.931c0 0-28.646 38.999-57.288 0l-145.715-198.472zM889.984 191.544h-756.009v506.481h756.009v-506.481zM921.487 175.718v538.127c0 8.745-7.055 15.831-15.729 15.831h-787.512c-8.714 0-15.77-7.086-15.77-15.831v-538.127c0-8.75 7.050-15.826 15.749-15.826h787.523c8.684 0 15.739 7.076 15.739 15.826z" />
<glyph unicode="&#xe61c;" d="M859.878 729.38c-82.345 82.319-215.808 82.319-298.122 0l-49.705-49.7-49.69 49.684c-82.319 82.33-215.823 82.33-298.138 0-82.33-82.335-82.33-215.808 0-298.132l347.827-347.807 347.827 347.807c82.319 82.324 82.319 215.808 0 298.148zM710.799 381.548l-198.748-198.748-298.117 298.127c-54.886 54.876-54.886 143.862 0 198.764 54.897 54.876 143.862 54.876 198.748 0l99.369-99.389 99.384 99.384c54.892 54.876 143.867 54.876 198.743 0 54.886-54.902 54.886-143.882 0-198.764l-99.379-99.374z" />
<glyph unicode="&#xe61d;" d="M904.346 507.781h-123.489v123.474c0 9.395-7.639 17.070-17.039 17.070h-35.169c-9.462 0-17.085-7.675-17.085-17.070v-123.474h-123.489c-9.416 0-17.091-7.66-17.091-17.101v-35.169c0-9.431 7.675-17.070 17.091-17.070h123.489v-123.505c0-9.452 7.624-17.075 17.085-17.075h35.169c9.4 0 17.039 7.624 17.039 17.075v123.54h123.489c9.416 0 17.075 7.624 17.075 17.070v35.154c0 9.421-7.66 17.080-17.075 17.080zM489.38 399.519c-25.964 18.401-49.582 45.379-49.981 53.668 0 15.099 1.341 22.308 35.195 48.676 43.756 34.258 67.855 79.288 67.855 126.874 0 43.156-13.184 81.495-35.625 108.406h17.413c3.594 0 7.137 1.126 9.994 3.231l48.584 35.19c6.031 4.342 8.571 12.047 6.267 19.077-2.304 7.045-8.837 11.837-16.261 11.837h-217.231c-23.762 0-47.923-4.178-71.613-12.334-79.165-27.31-134.538-94.766-134.538-164.014 0-98.115 76.006-172.483 177.628-174.822-1.997-7.788-2.995-15.447-2.995-22.958 0-15.109 3.83-29.45 11.72-43.269-0.932 0-1.802 0-2.801 0-96.84 0-184.269-47.519-217.446-118.241-8.653-18.396-13.051-36.992-13.051-55.357 0-17.848 4.577-35.036 13.583-51.164 20.849-37.304 65.638-66.273 126.193-81.562 31.242-7.89 64.819-11.914 99.692-11.914 31.334 0 61.21 4.045 88.817 12.052 86.103 24.975 141.773 88.371 141.773 161.546-0.031 70.19-22.595 112.236-83.169 155.080zM215.009 238.822c0 51.067 64.896 95.867 138.839 95.867h1.997c16.087-0.2 31.78-2.555 46.582-7.096 5.074-3.517 9.969-6.845 14.669-10.061 34.268-23.337 56.899-38.733 63.186-63.462 1.5-6.236 2.232-12.467 2.232-18.499 0-63.59-47.427-95.831-141.005-95.831-70.948 0-126.5 43.489-126.5 99.082zM282.296 721.388c11.566 13.194 26.701 20.183 43.704 20.183l1.92-0.031c48.015-1.423 93.957-54.943 102.4-119.296 4.756-36.035-3.256-69.908-21.381-90.563-11.597-13.225-26.527-20.188-44.196-20.188 0 0 0 0-0.031 0h-0.788c-47.012 1.444-93.952 56.98-102.344 121.272-4.716 35.917 2.842 68.219 20.716 88.622z" />
</font>
</defs>
</svg>
